<svg viewBox="0 0 24 24" xmlns="http://www.w3.org/2000/svg"><path d="m15.5294 14.1176-.7059-.2352c-.2353-.5883-.3529-1.2942-.1176-1.8824 1.2941-1.4118 1.8823-3.17647 1.7647-5.05882 0-2.82353-1.8824-4.94118-4.4706-4.94118-2.58824 0-4.47059 2.11765-4.47059 4.94118-.11765 1.7647.47059 3.64702 1.76471 5.05882.23529.5882.23529 1.2941-.11765 1.8824l-.70588.2352c-2.82353 1.0589-4.94118 1.7648-5.64706 3.0589-.47059 1.4117-.82353 2.8235-.82353 4.2353 0 .3529.23529.5882.58824.5882h18.82356c.3529 0 .5882-.2353.5882-.5882 0-1.4118-.3529-2.8236-.8235-4.1177-.7059-1.2941-2.8236-2.1176-5.6471-3.1765z" fill="#000"/></svg>
