<svg viewBox="0 0 24 24" xmlns="http://www.w3.org/2000/svg"><path d="m23.1 12.9h-3v3c0 .5-.4.9-.9.9s-.9-.4-.9-.9v-3h-3c-.5 0-.9-.4-.9-.9s.4-.9.9-.9h3v-3c0-.5.4-.9.9-.9s.9.4.9.9v3s3 0 3 0c.5 0 .9.4.9.9s-.4.9-.9.9zm-7.6 8.2h-15c-.3 0-.5-.2-.5-.5.1-2.1 1.1-2.6 3.2-3.4 2-.7 2.6-1.5 2.8-3.3-.3-.2-.6-.5-.9-.8-.5-.6-.8-1.4-.9-2.1-.5 0-.9-1.1-.9-1.8s.3-1 .5-1 0 0 .1 0c-.1-.5-.2-1-.2-1.4 0-2.6 1.1-4.1 4.3-4.1s1.7.4 2 .9c.2-.1.4-.2.6-.2.8 0 1.8 1 1.8 3.3 0 .5 0 1-.2 1.4h.1c.2 0 .5.2.5 1s-.4 1.8-.9 1.8c0 .8-.4 1.5-.9 2.1-.3.3-.6.5-.9.8.1 1.8.8 2.5 2.8 3.3 2.1.8 3 1.3 3.2 3.4 0 .3-.2.5-.5.5z" fill-rule="evenodd"/></svg>